<svg xmlns="http://www.w3.org/2000/svg" width="200" height="50" viewBox="0 0 200 90"><title>PythonEx</title>
<path d="M87.69,51.84a1.23,1.23,0,0,0-.11-.66,1.26,1.26,0,0,0-.94-.75L82,22.54a1.34,1.34,0,0,0,.52-1.8,1.26,1.26,0,0,0-1.69-.57l-.14.09L59.9,2A1.39,1.39,0,0,0,59.36.16a1.3,1.3,0,0,0-1.78.56,1.39,1.39,0,0,0-.14.42L30.39,1A1.27,1.27,0,0,0,28.67.41,1.34,1.34,0,0,0,28,1.88L7,20a1.27,1.27,0,0,0-.65-.2,1.32,1.32,0,0,0-1.28,1.34,1.35,1.35,0,0,0,.64,1.15L.83,50.11a1.34,1.34,0,0,0-.75,1.71,1.29,1.29,0,0,0,1.24.86h0L14.75,77.07A1.36,1.36,0,0,0,15,78.93a1.27,1.27,0,0,0,1.3.13,1.06,1.06,0,0,0,.31-.21l25.67,9.81a1.39,1.39,0,0,0,.12.57,1.26,1.26,0,0,0,1.71.64,1.32,1.32,0,0,0,.74-1.19l25.58-9.52a1.25,1.25,0,0,0,1.81,0,1.37,1.37,0,0,0,.17-1.69L86.18,53.06A1.14,1.14,0,0,0,87,53a1.27,1.27,0,0,0,.73-1.07h.1Zm-6.9-29.3L72.81,46a1.63,1.63,0,0,0-1.66.67L59.87,36.43,80.5,22.35A1.12,1.12,0,0,0,80.79,22.54Zm-20.2,31.1-.79,17a1.66,1.66,0,0,0-.38.11,1.32,1.32,0,0,0-.48.4L49.58,66H44l11.4-22.21,15.44,4.09a2.16,2.16,0,0,0,.15.62,1.7,1.7,0,0,0,2.27.88,1.72,1.72,0,0,0,.73-.66l11.1,2.94L60.51,53.44ZM37.41,64.24,30.12,42.49a1,1,0,0,0,.18-1.36l0-.09,8.23-12.11,11.3-.52H50L61,17.18a1.44,1.44,0,0,0,.39.2L59.3,36.28l-.16.1L70.92,47a1.4,1.4,0,0,0-.1.35L55.29,43.3l-.16-.08L43.25,66.44l5,0-7,2.43a1.33,1.33,0,0,0-.95-.6V66.05ZM18.08,57.38v-.23L32,55l-.2-.26-1.66-10.9,6.72,20.07-4.93-3,.08-.08ZM2.3,50.5,16.5,37.08a1.45,1.45,0,0,0,.4.26l-.67,18.08a1.85,1.85,0,0,0-.57.15,1.72,1.72,0,0,0-.8.8L2.54,51.66a.8.8,0,0,0,0-.31,1.3,1.3,0,0,0-.3-.85Zm15-13.09h0a1,1,0,0,0,.44-.08L25,46.66a1,1,0,0,0-.2.61,1,1,0,0,0,1,1,.85.85,0,0,0,.41-.09l5,6.48L18,56.71a1.43,1.43,0,0,0-.09-.27,1.72,1.72,0,0,0-1.25-1ZM27,16.09a1.12,1.12,0,0,0,.33-.32l13,6.92,8.19-8.52a1.63,1.63,0,0,0,.84.36l.17,13.36-11.2.52h0L34.88,33.5,18.59,35.72v0l13.13-7.23.35.09Zm.53-.73a1.36,1.36,0,0,0,.06-.29l20.25-1.92a1.6,1.6,0,0,0,.32.7l-8,8.28ZM18.64,36.17,34.5,34l-4.59,6.75a1,1,0,0,0-.37-.08,1,1,0,0,0-1,1,1,1,0,0,0,.25.67l-2.72,4a1,1,0,0,0-.35-.07.86.86,0,0,0-.41.1l-7.16-9.3A1.33,1.33,0,0,0,18.64,36.17Zm7.83,10.45,2.72-4a.71.71,0,0,0,.32.07L31.23,54l-4.72-6.13a1,1,0,0,0,0-1.26ZM60.61,16.67a.82.82,0,0,0,.12.2L50,27.74l-.17-13.22a1.56,1.56,0,0,0,.48-.14,1.74,1.74,0,0,0,.88-1L60.51,16a1.39,1.39,0,0,0,.1.67ZM80.24,22v0L59.78,36l2.08-18.52A1.25,1.25,0,0,0,63,16.66l17.16,4.69A1.41,1.41,0,0,0,80.24,22Zm-21-19.13a.51.51,0,0,0,.16-.09L80,20.85,63,16.22a1.32,1.32,0,0,0-.1-.68,1.27,1.27,0,0,0-1.69-.66h0a1.31,1.31,0,0,0-.65.66L51.25,13a1.75,1.75,0,0,0-.14-1,1.65,1.65,0,0,0-.29-.45l7.26-8.78A1.21,1.21,0,0,0,59.19,2.82ZM30.48,1.94l27,.11,0,.12a1.63,1.63,0,0,0,.23.35L50.5,11.27a1.7,1.7,0,0,0-1.66-.13,1.76,1.76,0,0,0-.68.59L30.48,2Zm-1.43,1a1.22,1.22,0,0,0,.73-.1,1.33,1.33,0,0,0,.51-.46L48,12.13a2.13,2.13,0,0,0-.11.57L27.59,14.62a1.32,1.32,0,0,0-.76-.91Zm-.61-.27a.82.82,0,0,0,.2.12L26.4,13.64h0A1.31,1.31,0,0,0,25.06,15v.16L7.83,20.42ZM25.2,15.56a1.24,1.24,0,0,0,1.15.74,1.27,1.27,0,0,0,.28,0l4.69,11.6L7.62,21.23V21ZM7.5,21.67l23.6,6.61-12.71,7A1.26,1.26,0,0,0,16.63,35L7.27,22.05A1.14,1.14,0,0,0,7.5,21.67ZM1.73,50.1,6.55,22.42a1.09,1.09,0,0,0,.36-.12l9.39,13a1.34,1.34,0,0,0-.08,1.4L1.94,50.22ZM15.59,76.51h-.13L2.13,52.34a1.31,1.31,0,0,0,.24-.28l12.34,4.72A1.77,1.77,0,0,0,16,58.91l.13,0Zm1,.29a1.19,1.19,0,0,0-.55-.27L16.55,59a1.8,1.8,0,0,0,.55-.15,1.7,1.7,0,0,0,.87-1L31.13,61Zm.36.45-.07-.12,14.7-16L37,64.55h0l2.87,1.76v2a.68.68,0,0,0-.2.07A1.36,1.36,0,0,0,39,69.69L17,77.35a.31.31,0,0,0,0-.08ZM43,87.42a1.83,1.83,0,0,0-.44.35L17,78a.74.74,0,0,0,0-.21l22-7.66v0a1.3,1.3,0,0,0,1.09.77l3,16.46Zm.48-.35L40.58,70.89l.19-.07a1.33,1.33,0,0,0,.7-1.52l7.76-2.7Zm26.61-8.79L44.56,87.79a1.26,1.26,0,0,0-.67-.46l5.8-20.79,9.07,5a1.35,1.35,0,0,0,.82,1.68,1.3,1.3,0,0,0,.93,0,1.24,1.24,0,0,0,.48-.4l9.2,5.06a1.43,1.43,0,0,0-.07.46Zm.29-.86L61.2,72.35a1.34,1.34,0,0,0-.8-1.67h0l-.14,0L61,54.57l9.75,22.55a1.73,1.73,0,0,0-.35.31ZM71.69,77a1.23,1.23,0,0,0-.54,0l-10-23.14,24-1.74a2.25,2.25,0,0,0,.08.24,1.75,1.75,0,0,0,.18.29ZM85.24,51.18l-11.1-2.93A1.85,1.85,0,0,0,74.06,47a1.7,1.7,0,0,0-.83-.86l7.94-23.31,4.6,27.78a1.42,1.42,0,0,0-.53.63Z" fill="#FFFFFF"/>
<path d="M71.58,52q-.84-1.86-1.89-4.86c-.86-2.55-1.59-5.15-2.2-7.77a3.61,3.61,0,0,1,1.21-.84,3.82,3.82,0,0,1,1.67-.35,3.13,3.13,0,0,1,1.86.5,3.3,3.3,0,0,1,1.12,1.85q.8,2.71,1.6,5.36c.54,1.77,1.09,3.54,1.63,5.33h.15c.29-.85.59-1.77.9-2.78s.61-2,.87-3.13.56-2.17.82-3.28.47-2.18.66-3.22a4.59,4.59,0,0,1,2.34-.63,3.65,3.65,0,0,1,2,.52,1.85,1.85,0,0,1,.82,1.71,16.33,16.33,0,0,1-.43,3.41A43.14,43.14,0,0,1,83.5,48.1q-.73,2.28-1.65,4.47A35,35,0,0,1,80,56.47a29,29,0,0,1-3.63,5.27,4.56,4.56,0,0,1-3.27,1.73,3,3,0,0,1-2.19-.84,3.57,3.57,0,0,1-1.05-2.14,30.58,30.58,0,0,0,2.39-2.44,20,20,0,0,0,2.11-2.81A3.21,3.21,0,0,1,73,54.4,8.16,8.16,0,0,1,71.58,52Z" fill="#FFFFFF"/>
<path d="M94.22,52a3.08,3.08,0,0,0,1.8.45,5.55,5.55,0,0,0,1.15-.13,6.33,6.33,0,0,0,1-.31,3.41,3.41,0,0,1,.54.85A2.82,2.82,0,0,1,99,54a2.66,2.66,0,0,1-1,2.14,5.36,5.36,0,0,1-3.43.84,7.05,7.05,0,0,1-4.71-1.44q-1.7-1.43-1.69-4.67V34.15a9.81,9.81,0,0,1,1-.24,7.3,7.3,0,0,1,1.4-.13,3.58,3.58,0,0,1,2.29.58,2.59,2.59,0,0,1,.7,2.1v2.42h5a5.78,5.78,0,0,1,.36.95A4.12,4.12,0,0,1,99.08,41a2.36,2.36,0,0,1-.54,1.72,1.86,1.86,0,0,1-1.31.52H93.6V50.5A1.73,1.73,0,0,0,94.22,52Z" fill="#FFFFFF"/>
<path d="M106.74,56.58a10,10,0,0,1-1.44.1,3.88,3.88,0,0,1-2.34-.55,2.5,2.5,0,0,1-.72-2.1V32.17a10.24,10.24,0,0,1,1.05-.22,7.59,7.59,0,0,1,1.43-.11,3.69,3.69,0,0,1,2.32.56,2.59,2.59,0,0,1,.7,2.12v4.29a8.4,8.4,0,0,1,3.78-.86,7.66,7.66,0,0,1,5.41,1.82,7,7,0,0,1,2,5.42V56.4a8.62,8.62,0,0,1-1,.21,9.86,9.86,0,0,1-1.44.09,3.92,3.92,0,0,1-2.33-.54,2.51,2.51,0,0,1-.72-2.11V45.52a2.67,2.67,0,0,0-2.88-3.1,4.87,4.87,0,0,0-1.51.24,8.33,8.33,0,0,0-1.25.58V56.42A8.49,8.49,0,0,1,106.74,56.58Z" fill="#FFFFFF"/>
<path d="M140.57,47.45a11.4,11.4,0,0,1-.65,4,8,8,0,0,1-4.75,4.9,10.1,10.1,0,0,1-3.77.67,10.43,10.43,0,0,1-3.79-.65,8,8,0,0,1-4.77-4.89,11.53,11.53,0,0,1-.64-4,11,11,0,0,1,.66-3.93,8.49,8.49,0,0,1,1.87-3,8.25,8.25,0,0,1,2.91-1.9A10.08,10.08,0,0,1,131.4,38a10,10,0,0,1,3.74.67A8.09,8.09,0,0,1,138,40.54a8.58,8.58,0,0,1,1.87,3A11.09,11.09,0,0,1,140.57,47.45Zm-9.17-5a3,3,0,0,0-2.63,1.31,6.32,6.32,0,0,0-.94,3.72,6.59,6.59,0,0,0,.92,3.78,3.32,3.32,0,0,0,4.81.49,2.78,2.78,0,0,0,.48-.49,6.56,6.56,0,0,0,.92-3.76,6.38,6.38,0,0,0-.94-3.71A3,3,0,0,0,131.4,42.42Z" fill="#FFFFFF"/>
<path d="M154.26,43.05a3,3,0,0,0-2-.63,5.63,5.63,0,0,0-1.58.22,7.69,7.69,0,0,0-1.32.56V56.38a6.81,6.81,0,0,1-1,.2,10,10,0,0,1-1.44.1,4,4,0,0,1-2.34-.54,2.51,2.51,0,0,1-.72-2.11V42.53a2.76,2.76,0,0,1,.4-1.56,4.38,4.38,0,0,1,1.11-1.12,9.2,9.2,0,0,1,3-1.36,14.17,14.17,0,0,1,4-.54,9.18,9.18,0,0,1,6.06,1.79,6.26,6.26,0,0,1,2.14,5.1V56.39a7.45,7.45,0,0,1-1,.19,10,10,0,0,1-1.44.1,3.79,3.79,0,0,1-2.32-.55A2.53,2.53,0,0,1,155,54V45A2.4,2.4,0,0,0,154.26,43.05Z" fill="#FFFFFF"/>
<path d="M165.9,55.67a3.05,3.05,0,0,1-.81-2.27V37a2.85,2.85,0,0,1,2.58-3.09H180a4.93,4.93,0,0,1,.4.91,4.53,4.53,0,0,1,.18,1.27,2.71,2.71,0,0,1-.53,1.81,1.83,1.83,0,0,1-1.45.6h-8v4.17h8.33a4.93,4.93,0,0,1,.4.91,4.53,4.53,0,0,1,.18,1.27,2.75,2.75,0,0,1-.51,1.82,1.81,1.81,0,0,1-1.43.57h-7v4.66h9.53a4.84,4.84,0,0,1,.57,2.27,2.58,2.58,0,0,1-.52,1.79,1.83,1.83,0,0,1-1.42.56H168.07A2.89,2.89,0,0,1,165.9,55.67Z" fill="#FFFFFF"/>
<path d="M185,51.18c.53-.65,1.06-1.3,1.58-2s1.07-1.31,1.62-1.95l-4.92-6.14a3.86,3.86,0,0,1,1-2.08,2.53,2.53,0,0,1,1.89-.8,3,3,0,0,1,.94.13,2.57,2.57,0,0,1,.73.39,4,4,0,0,1,.65.65c.2.26.44.56.67.88l2.59,3.63,4.09-5.62a1,1,0,0,1,.29,0h.25a4,4,0,0,1,2.41.67,2.12,2.12,0,0,1,.9,1.74,3,3,0,0,1-.4,1.52,14.53,14.53,0,0,1-1.44,1.87l-2.8,3.31L200,54.05a3.27,3.27,0,0,1-1,2,2.77,2.77,0,0,1-1.95.73,2.83,2.83,0,0,1-1.92-.73,10.47,10.47,0,0,1-1.45-1.73l-2.3-3.43-3.95,5.78h-.72a3.82,3.82,0,0,1-2.48-.71,2.19,2.19,0,0,1-.88-1.75,2.73,2.73,0,0,1,.36-1.4A12.35,12.35,0,0,1,185,51.18Z" fill="#FFFFFF"/>
<path d="M38.48,52.72l-4.29,10.9a14.28,14.28,0,0,1-1.81-.4,19.58,19.58,0,0,1-2.33-.83,5.94,5.94,0,0,1-3.23-2.45,4.72,4.72,0,0,1,.28-3.69L37.88,28.93a2.56,2.56,0,0,1,1.26-1.51,3.94,3.94,0,0,1,2-.26,13.65,13.65,0,0,1,2.2.28c.79.16,1.61.36,2.43.57a22.15,22.15,0,0,1,2.43.77c.8.31,1.54.58,2.23.87q7.41,3.13,9.94,8a12.13,12.13,0,0,1,.31,10.48,13.1,13.1,0,0,1-2.9,4.55,10.88,10.88,0,0,1-4.24,2.64,13,13,0,0,1-5.33.54,20.38,20.38,0,0,1-6.18-1.62Zm5.78-5.65A7,7,0,0,0,49,47.6a4.77,4.77,0,0,0,3.07-3.13q2-5-3.79-7.46c-.65-.28-1.23-.5-1.76-.67s-1-.32-1.5-.46l-3.88,9.89Z" fill="#FFFFFF"/>
</svg>